<svg id="Layer_1" data-name="Layer 1" xmlns="http://www.w3.org/2000/svg" viewBox="0 0 25 25"><defs><style>.cls-1{fill:#fff;fill-opacity:0.95;}</style></defs><path class="cls-1" d="M20.79,4.55A19.29,19.29,0,0,0,15.92,3a.09.09,0,0,0-.08,0,13.79,13.79,0,0,0-.6,1.3,17.91,17.91,0,0,0-5.47,0A12.88,12.88,0,0,0,9.15,3s0,0-.08,0A19.21,19.21,0,0,0,4.21,4.55l0,0A21.83,21.83,0,0,0,.64,18.81s0,0,0,.06a19.55,19.55,0,0,0,6,3.15.09.09,0,0,0,.09,0A14.9,14.9,0,0,0,8,19.92a.08.08,0,0,0,0-.11A13,13,0,0,1,6,18.88a.08.08,0,0,1,0-.13l.37-.31a.06.06,0,0,1,.07,0,13.58,13.58,0,0,0,12,0,.08.08,0,0,1,.08,0l.37.31a.08.08,0,0,1,0,.13,12.42,12.42,0,0,1-1.86.93.08.08,0,0,0,0,.11A16.31,16.31,0,0,0,18.26,22a.07.07,0,0,0,.08,0,19.26,19.26,0,0,0,6-3.15.09.09,0,0,0,0-.06A21.68,21.68,0,0,0,20.82,4.58ZM8.53,16a2.36,2.36,0,0,1-2.14-2.52,2.35,2.35,0,0,1,2.14-2.52,2.34,2.34,0,0,1,2.15,2.52A2.35,2.35,0,0,1,8.53,16Zm8,0a2.36,2.36,0,0,1-2.15-2.52,2.35,2.35,0,0,1,2.15-2.52,2.34,2.34,0,0,1,2.15,2.52A2.34,2.34,0,0,1,16.48,16Z"/></svg>