<?xml version="1.0" encoding="utf-8"?>
<!-- Generator: Adobe Illustrator 25.3.0, SVG Export Plug-In . SVG Version: 6.00 Build 0)  -->
<svg version="1.1" baseProfile="tiny" id="Layer_1" xmlns="http://www.w3.org/2000/svg" xmlns:xlink="http://www.w3.org/1999/xlink"
	 x="0px" y="0px" viewBox="0 0 600 600" overflow="visible" xml:space="preserve">
<g>
	<path fill="#6FCCDD" d="M256.39,261.24v-16.47h93.29v29.29h24.4V311h-24.4v27.55h19.54v30.62h-19.54v8.07h-93.29v-18.07h-10.46
		v-20.62h10.46V321h34.37v-46.94h-34.37V261.24z M349.68,49.57v16.47l0,0v45.13h17.43v11.96h-17.43v12.64h34.86v11.96h-34.86v31.26
		h-7.83v23.96H228.5v-23.96h17.89v-31.26h44.86v-11.96h-24.86v-12.64h7.43v-11.96h-17.43v-61.6h-41.83v61.6h17.43v11.96h-17.43
		v12.64h34.86v11.96h-34.86v31.26h-7.89v23.96H72.47v29.9h27.89v11.93h152.21v29.29h14.4V311h-24.4l-28,27.55h17.54v20.62h10.46
		l-28,18.07H100.35v41.83h114.21v43.83h10.46v65.82h0.57v43.73h33.83V528.7h7.43v-65.82h-10.46v-43.83h93.29v43.83h10.43v65.82
		h-17.43v43.73h41.83V528.7h17.43v-65.82h-10.46v-47.83h114.19v-37.83H391.51v-18.07h-10.46v-20.62h10.46V311h24.4v-36.94h-24.4
		v-29.29H505.7v-11.93h-27.89v-29.9H363.63v-23.96h17.89v-31.26h44.86v-11.96h-24.86v-12.64h7.43v-11.96h-17.43v-61.6H349.68z"/>
	<path fill="#ED1E24" d="M279.39,243.24v-16.47h93.29v29.29h24.4V293h-24.4v27.55h-10.46v20.62h10.46v18.07h-93.29v-18.07h-10.46
		v-20.62h10.46V293h24.37v-36.94h-24.37V243.24z M372.68,31.57v16.47l0,0v45.13h17.43v11.96h-7.43v12.64h15.86v11.96h-25.86v31.26
		h-27.83v23.96H251.5v-23.96h27.89v-31.26h34.86v-11.96h-34.86v-12.64h17.43V93.17h-17.43v-61.6h-41.83v61.6h17.43v11.96h-7.43
		v12.64h18.86v11.96h-28.86v31.26h-27.89v23.96H95.47v29.9h27.89v11.93h114.21v29.29h24.4V293h-24.4v27.55H227.1v20.62h10.46v18.07
		H123.35v41.83h114.21v43.83h10.46v65.82h-8.43v43.73h32.83V510.7h17.43v-65.82h-10.46v-43.83h93.29v43.83h10.43v65.82h-10.43v43.73
		h34.83V510.7h17.43v-65.82h-10.46v-43.83h114.19v-39.83H414.51v-20.07h-10.46v-20.62h10.46V293h24.4v-36.94h-24.4v-29.29H528.7
		v-11.93h-27.89v-29.9H386.63v-23.96h27.89v-31.26h34.86v-11.96h-34.86v-12.64h17.43V93.17h-17.43v-61.6H372.68z"/>
	<path fill="#010101" d="M267.3,250.24v-16.47h93.29v29.29H385V300h-24.4v27.55h-10.46v20.62h10.46v18.07H267.3v-18.07h-10.46
		v-20.62h10.46V300h24.37v-36.94H267.3V250.24z M360.6,38.57v16.47l0,0v45.13h17.43v11.96H360.6v12.64h34.86v11.96H360.6v31.26
		h-27.83v23.96h-93.35v-23.96h27.89v-31.26h34.86v-11.96H267.3v-12.64h17.43v-11.96H267.3v-61.6h-41.83v61.6h17.43v11.96h-17.43
		v12.64h34.86v11.96h-34.86v31.26h-27.89v23.96H83.38v29.9h27.89v11.93h114.21v29.29h24.4V300h-24.4v27.55h-10.46v20.62h10.46v18.07
		H111.27v41.83h114.21v43.83h10.46v65.82H218.5v43.73h41.83V517.7h17.43v-65.82H267.3v-43.83h93.29v43.83h10.43v65.82H353.6v43.73
		h41.83V517.7h17.43v-65.82H402.4v-43.83h114.19v-41.83H402.42v-18.07h-10.46v-20.62h10.46V300h24.4v-36.94h-24.4v-29.29h114.19
		v-11.93h-27.89v-29.9H374.54v-23.96h27.89v-31.26h34.86v-11.96h-34.86v-12.64h17.43v-11.96h-17.43v-61.6H360.6z"/>
</g>
<g>
</g>
<g>
</g>
<g>
</g>
<g>
</g>
<g>
</g>
<g>
</g>
</svg>
