<svg id="Layer_1" data-name="Layer 1" xmlns="http://www.w3.org/2000/svg" viewBox="0 0 25 25"><defs><style>.cls-1{fill:#fff;fill-opacity:0.95;}</style></defs><path class="cls-1" d="M12.5.54a12,12,0,1,0,12,12A12,12,0,0,0,12.5.54Zm-6,12.37,0-.08L9.61,8A.11.11,0,0,1,9.8,8a6.86,6.86,0,0,1,.76,3.52,4.91,4.91,0,0,1-.62,1.34.47.47,0,0,1-.12.19.13.13,0,0,1-.09,0H6.52A.13.13,0,0,1,6.45,12.91ZM20.3,14.58c0,.05,0,.07-.08.1a3.59,3.59,0,0,0-1.41,1c-.88,1.22-1.55,3-3,3H9.53a4,4,0,0,1-4-4v-.07a.11.11,0,0,1,.1-.1H9.15a.13.13,0,0,1,.12.12,1.42,1.42,0,0,0,.12.67,1.23,1.23,0,0,0,1.1.67h1.72V14.53H10.52c-.1,0-.15-.09-.1-.16a.43.43,0,0,0,.07-.1c.17-.24.38-.57.62-1a5.31,5.31,0,0,0,.43-.86,1.38,1.38,0,0,0,.08-.17c0-.09.07-.19.09-.26l.07-.22a3.87,3.87,0,0,0,.07-.79,2,2,0,0,0,0-.33c0-.12,0-.24,0-.36a1.54,1.54,0,0,0-.05-.31,4.1,4.1,0,0,0-.1-.48l0,0a1.39,1.39,0,0,0-.1-.31,7.54,7.54,0,0,0-.33-1l-.14-.36c-.08-.17-.15-.34-.22-.48a1.74,1.74,0,0,0-.1-.19c0-.07-.07-.15-.09-.22l-.07-.14-.22-.38s0-.12.07-.1l1.32.36.17,0,.19,0,.07,0V6a.69.69,0,0,1,.67-.69.67.67,0,0,1,.48.19.66.66,0,0,1,.19.48V7.14l.14.05a0,0,0,0,1,0,0,.67.67,0,0,0,.14.11.86.86,0,0,0,.17.15c.12.09.28.24.45.38s.1.07.12.12a9,9,0,0,1,.69.69c.08.08.12.15.2.22s.11.17.19.24l.24.31a.87.87,0,0,1,.09.17c.1.14.17.28.26.43a2,2,0,0,1,.1.21,1.56,1.56,0,0,1,.19.6.23.23,0,0,1,0,.12.55.55,0,0,1,0,.19,3.19,3.19,0,0,1,0,.62l-.08.27a1.35,1.35,0,0,1-.09.26,4.08,4.08,0,0,1-.27.5A2.19,2.19,0,0,1,16,13a.67.67,0,0,0-.12.19c-.05.08-.12.15-.17.22a1.57,1.57,0,0,1-.17.21c-.07.1-.17.2-.24.29a.91.91,0,0,1-.17.17.83.83,0,0,1-.16.17,1.86,1.86,0,0,1-.22.19l-.14.12a.11.11,0,0,1-.07,0H13.5v1.34h1.32a1.2,1.2,0,0,0,.79-.29c.07-.07.41-.36.81-.79l0,0,3.63-1.05c.15-.07.2,0,.2.05Z"/></svg>