<svg id="Layer_1" data-name="Layer 1" xmlns="http://www.w3.org/2000/svg" viewBox="0 0 25 25"><defs><style>.cls-1{fill:#fff;opacity:0.95;}</style></defs><path class="cls-1" d="M8.07,22.66c9,0,14-7.82,14-14.6,0-.21,0-.44,0-.66a10.32,10.32,0,0,0,2.45-2.65,9.66,9.66,0,0,1-2.82.8A5.15,5.15,0,0,0,23.8,2.71,9.59,9.59,0,0,1,20.68,4,4.83,4.83,0,0,0,17.9,2.41,4.75,4.75,0,0,0,14.79,3a5.08,5.08,0,0,0-2.16,2.41,5.41,5.41,0,0,0-.31,3.28,13.62,13.62,0,0,1-5.6-1.56,14.07,14.07,0,0,1-4.51-3.8A5.34,5.34,0,0,0,1.67,7a5.2,5.2,0,0,0,2.06,3.11,4.83,4.83,0,0,1-2.22-.64v.06a5.27,5.27,0,0,0,1.1,3.25,4.9,4.9,0,0,0,2.83,1.78,4.86,4.86,0,0,1-2.21.09A5.12,5.12,0,0,0,5,17.22a4.84,4.84,0,0,0,2.84,1,9.57,9.57,0,0,1-6.09,2.2,9.23,9.23,0,0,1-1.18-.08A13.49,13.49,0,0,0,8.07,22.66Z"/></svg>